<svg xmlns="http://www.w3.org/2000/svg" xmlns:xlink="http://www.w3.org/1999/xlink" viewBox="0,0,255.987,255.987" width="96px" height="96px" fill-rule="nonzero"><g fill="none" fill-rule="nonzero" stroke="none" stroke-width="1" stroke-linecap="butt" stroke-linejoin="miter" stroke-miterlimit="10" stroke-dasharray="" stroke-dashoffset="0" font-family="none" font-weight="none" font-size="none" text-anchor="none" style="mix-blend-mode: normal"><g transform="scale(5.33333,5.33333)"><circle cx="24" cy="24" r="20" fill="#9fa9ba"></circle><circle cx="24" cy="19" r="4" fill="#2962ff"></circle><path d="M24,26c0,0 -9,0 -9,5.727c0,3.273 1.636,3.273 9,3.273c7.364,0 9,0 9,-3.273c0,-5.727 -9,-5.727 -9,-5.727z" fill="#2962ff"></path><circle cx="24" cy="18" r="4" fill="#ffffff"></circle><path d="M24,25c0,0 -9,0 -9,5.727c0,3.273 1.636,3.273 9,3.273c7.364,0 9,0 9,-3.273c0,-5.727 -9,-5.727 -9,-5.727z" fill="#ffffff"></path></g></g></svg>